# xmcd
#
# Track frame offsets:
#	150
#	18205
#	40023
#	58774
#	90186
#	104529
#	121811
#	148278
#	167999
#	185124
#	200980
#
# Disc length: 2914 seconds
#
# Revision: 0
# Processed by: cddbd v1.5.2PL0 Copyright (c) Steve Scherf et al.
# Submitted via: audiograbber 1.81.02
#
DISCID=9d0b600b
DTITLE=Bobby Mack - Highway Man
DYEAR=1998
DGENRE=Blues-Rock
TTITLE0=Palace of the King
TTITLE1=Borrowed Time
TTITLE2=Highway Man
TTITLE3=Pourin' Rain
TTITLE4=Pumpkin Pie
TTITLE5=A Matter of Time
TTITLE6=Heard of a Lonely Man
TTITLE7=Fender Bender
TTITLE8=Doin' Alright
TTITLE9=I Can't Help Myself
TTITLE10=Steppin' Out
EXTD=
EXTT0=
EXTT1=
EXTT2=
EXTT3=
EXTT4=
EXTT5=
EXTT6=
EXTT7=
EXTT8=
EXTT9=
EXTT10=
PLAYORDER=
